<svg width="240" height="90" viewBox="0 0 240 90" fill="none" xmlns="http://www.w3.org/2000/svg">
<path d="M99.9141 31.2891C102.362 31.3932 105.441 31.4453 109.152 31.4453L116.711 51.9141H116.809L124.68 31.4453H126.926C128.54 31.4453 130.819 31.3932 133.762 31.2891C133.814 31.4974 133.84 31.6406 133.84 31.7188C133.84 31.8099 133.814 31.9727 133.762 32.207C133.293 32.2461 132.915 32.2852 132.629 32.3242C132.342 32.3633 131.958 32.4284 131.477 32.5195C131.008 32.6107 130.63 32.7214 130.344 32.8516C130.057 32.9688 129.803 33.138 129.582 33.3594C129.361 33.5677 129.243 33.8086 129.23 34.082C129.1 37.1419 129.035 40.7812 129.035 45C129.035 49.2839 129.12 53.3919 129.289 57.3242C129.302 57.6628 129.452 57.9557 129.738 58.2031C130.025 58.4375 130.435 58.6198 130.969 58.75C131.516 58.8802 131.971 58.9779 132.336 59.043C132.714 59.0951 133.202 59.1471 133.801 59.1992C133.853 59.4076 133.879 59.5833 133.879 59.7266C133.879 59.8307 133.853 59.9609 133.801 60.1172C131.6 60.0391 129.335 60 127.004 60C124.66 60 122.395 60.0391 120.207 60.1172C120.155 59.9609 120.129 59.8307 120.129 59.7266C120.129 59.5052 120.155 59.3294 120.207 59.1992C120.806 59.1471 121.288 59.0951 121.652 59.043C122.03 58.9779 122.486 58.8802 123.02 58.75C123.566 58.6198 123.983 58.4375 124.27 58.2031C124.556 57.9557 124.706 57.6628 124.719 57.3242C124.849 53.2617 124.914 49.6354 124.914 46.4453C124.914 43.3854 124.849 39.9023 124.719 35.9961H124.562L115.637 59.5117H115.441L105.93 35.5273H105.715C105.611 38.6914 105.559 42.3307 105.559 46.4453C105.559 49.4661 105.624 52.9948 105.754 57.0312C105.78 58.2161 107.219 58.9388 110.07 59.1992C110.135 59.4206 110.168 59.5964 110.168 59.7266C110.168 59.8568 110.135 59.987 110.07 60.1172C108 60.0391 106.151 60 104.523 60C103.482 60 101.737 60.0391 99.2891 60.1172C99.224 59.987 99.1914 59.8568 99.1914 59.7266C99.1914 59.5052 99.224 59.3294 99.2891 59.1992C102.167 58.9258 103.605 58.2031 103.605 57.0312C103.762 52.9688 103.84 48.9583 103.84 45C103.84 42.1484 103.801 39.1211 103.723 35.918C103.71 35.3711 103.677 34.9154 103.625 34.5508C103.573 34.1732 103.475 33.8477 103.332 33.5742C103.189 33.3008 103.039 33.0859 102.883 32.9297C102.727 32.7734 102.486 32.6367 102.16 32.5195C101.835 32.3893 101.516 32.2982 101.203 32.2461C100.904 32.181 100.474 32.1094 99.9141 32.0312C99.862 31.9271 99.8359 31.8099 99.8359 31.6797C99.8359 31.5234 99.862 31.3932 99.9141 31.2891Z" fill="#F5F5F5"/>
<path d="M136.828 31.2891C139.745 31.3932 142.023 31.4453 143.664 31.4453C154.836 31.3802 161.021 31.3281 162.219 31.2891C162.388 32.5911 162.72 33.8281 163.215 35C163.71 36.1589 164.341 37.3958 165.109 38.7109C165.005 38.9323 164.777 39.1081 164.426 39.2383C163.957 38.3529 163.391 37.5651 162.727 36.875C162.062 36.1849 161.223 35.5339 160.207 34.9219C159.204 34.3099 157.948 33.8086 156.438 33.418C154.94 33.0273 153.228 32.7669 151.301 32.6367H145.91C145.741 38.1445 145.656 42.2917 145.656 45.0781H151.223C151.6 45.0781 151.952 45.0521 152.277 45C152.616 44.9349 152.928 44.8307 153.215 44.6875C153.501 44.5312 153.755 44.388 153.977 44.2578C154.211 44.1146 154.445 43.9062 154.68 43.6328C154.914 43.3464 155.109 43.112 155.266 42.9297C155.422 42.7344 155.611 42.4414 155.832 42.0508C156.053 41.6602 156.223 41.3542 156.34 41.1328C156.457 40.9115 156.633 40.5664 156.867 40.0977C157.115 39.6289 157.303 39.2773 157.434 39.043C157.837 39.1992 158.085 39.3685 158.176 39.5508C157.629 40.5143 157.167 41.582 156.789 42.7539C156.411 43.9258 156.223 44.9023 156.223 45.6836C156.223 47.5326 156.874 49.5703 158.176 51.7969C158.072 52.0052 157.824 52.181 157.434 52.3242C157.29 52.0638 157.089 51.6927 156.828 51.2109C156.581 50.7161 156.385 50.3385 156.242 50.0781C156.099 49.8177 155.904 49.4857 155.656 49.082C155.409 48.6784 155.188 48.3659 154.992 48.1445C154.81 47.9232 154.569 47.6758 154.27 47.4023C153.983 47.1289 153.697 46.9271 153.41 46.7969C153.124 46.6536 152.792 46.5365 152.414 46.4453C152.049 46.3411 151.652 46.2891 151.223 46.2891H145.656C145.656 48.3594 145.728 52.5326 145.871 58.8086H152.102C154.029 58.6784 155.741 58.418 157.238 58.0273C158.749 57.6367 160.005 57.1354 161.008 56.5234C162.023 55.9115 162.863 55.2604 163.527 54.5703C164.191 53.8802 164.758 53.0924 165.227 52.207C165.578 52.3372 165.806 52.5065 165.91 52.7148C165.845 52.8451 165.676 53.1576 165.402 53.6523C165.129 54.1471 164.947 54.4857 164.855 54.668C164.764 54.8372 164.608 55.1432 164.387 55.5859C164.178 56.0156 164.022 56.3672 163.918 56.6406C163.814 56.901 163.69 57.2331 163.547 57.6367C163.417 58.0404 163.306 58.4375 163.215 58.8281C163.137 59.2057 163.072 59.5964 163.02 60H145.871C142.342 60 139.315 60.0391 136.789 60.1172C136.737 59.9609 136.711 59.8307 136.711 59.7266C136.711 59.6354 136.737 59.4596 136.789 59.1992C137.388 59.1471 137.87 59.0951 138.234 59.043C138.612 58.9779 139.068 58.8802 139.602 58.75C140.148 58.6198 140.565 58.4375 140.852 58.2031C141.138 57.9557 141.288 57.6628 141.301 57.3242C141.457 53.2487 141.535 49.1406 141.535 45C141.535 40.7812 141.47 37.1419 141.34 34.082C141.327 33.7435 141.177 33.457 140.891 33.2227C140.604 32.9753 140.188 32.7865 139.641 32.6562C139.107 32.526 138.651 32.4349 138.273 32.3828C137.909 32.3177 137.427 32.2591 136.828 32.207C136.776 31.9727 136.75 31.8099 136.75 31.7188C136.75 31.6406 136.776 31.4974 136.828 31.2891Z" fill="#F5F5F5"/>
<path d="M172.785 31.2891C173.618 31.3021 175.793 31.3346 179.309 31.3867C182.824 31.4258 185.441 31.4453 187.16 31.4453C188.462 31.4453 189.764 31.3932 191.066 31.2891C191.496 31.4323 191.711 31.7253 191.711 32.168C185.305 41.2174 179.146 50.0977 173.234 58.8086H179.68C181.464 58.8086 183.039 58.6784 184.406 58.418C185.786 58.1445 186.965 57.7734 187.941 57.3047C188.918 56.8229 189.777 56.1849 190.52 55.3906C191.275 54.5833 191.9 53.7174 192.395 52.793C192.902 51.8685 193.384 50.7617 193.84 49.4727C194.217 49.5247 194.465 49.6615 194.582 49.8828C193.97 51.4714 193.56 53.0729 193.352 54.6875C193.143 56.2891 193.039 58.0599 193.039 60H172.277C170.91 60 169.523 60.0391 168.117 60.1172C167.922 59.9219 167.824 59.668 167.824 59.3555C173.931 50.8138 180.122 41.8815 186.398 32.5586C184.81 32.5716 183.417 32.6237 182.219 32.7148C181.021 32.806 179.901 32.9883 178.859 33.2617C177.831 33.5352 176.958 33.8151 176.242 34.1016C175.526 34.388 174.732 34.8372 173.859 35.4492C172.987 36.0482 172.245 36.6081 171.633 37.1289C171.034 37.6367 170.194 38.3789 169.113 39.3555C168.749 39.3555 168.482 39.2122 168.312 38.9258C170.357 36.7643 171.848 34.2188 172.785 31.2891Z" fill="#F5F5F5"/>
<path d="M201.457 31.2891C202.29 31.3021 204.465 31.3346 207.98 31.3867C211.496 31.4258 214.113 31.4453 215.832 31.4453C217.134 31.4453 218.436 31.3932 219.738 31.2891C220.168 31.4323 220.383 31.7253 220.383 32.168C213.977 41.2174 207.818 50.0977 201.906 58.8086H208.352C210.135 58.8086 211.711 58.6784 213.078 58.418C214.458 58.1445 215.637 57.7734 216.613 57.3047C217.59 56.8229 218.449 56.1849 219.191 55.3906C219.947 54.5833 220.572 53.7174 221.066 52.793C221.574 51.8685 222.056 50.7617 222.512 49.4727C222.889 49.5247 223.137 49.6615 223.254 49.8828C222.642 51.4714 222.232 53.0729 222.023 54.6875C221.815 56.2891 221.711 58.0599 221.711 60H200.949C199.582 60 198.195 60.0391 196.789 60.1172C196.594 59.9219 196.496 59.668 196.496 59.3555C202.603 50.8138 208.794 41.8815 215.07 32.5586C213.482 32.5716 212.089 32.6237 210.891 32.7148C209.693 32.806 208.573 32.9883 207.531 33.2617C206.503 33.5352 205.63 33.8151 204.914 34.1016C204.198 34.388 203.404 34.8372 202.531 35.4492C201.659 36.0482 200.917 36.6081 200.305 37.1289C199.706 37.6367 198.866 38.3789 197.785 39.3555C197.421 39.3555 197.154 39.2122 196.984 38.9258C199.029 36.7643 200.52 34.2188 201.457 31.2891Z" fill="#F5F5F5"/>
<path d="M225.578 31.2891C228.495 31.3932 230.76 31.4453 232.375 31.4453C233.99 31.4453 236.255 31.3932 239.172 31.2891C239.224 31.4974 239.25 31.6406 239.25 31.7188C239.25 31.862 239.224 32.0247 239.172 32.207C238.573 32.2591 238.085 32.3177 237.707 32.3828C237.342 32.4349 236.887 32.526 236.34 32.6562C235.806 32.7865 235.396 32.9753 235.109 33.2227C234.823 33.457 234.673 33.7435 234.66 34.082C234.491 38.5091 234.406 42.6302 234.406 46.4453C234.406 49.2318 234.478 52.8581 234.621 57.3242C234.634 57.6628 234.784 57.9557 235.07 58.2031C235.357 58.4375 235.767 58.6198 236.301 58.75C236.848 58.8802 237.303 58.9779 237.668 59.043C238.046 59.0951 238.534 59.1471 239.133 59.1992C239.185 59.3555 239.211 59.5312 239.211 59.7266C239.211 59.8307 239.185 59.9609 239.133 60.1172C236.919 60.0391 234.654 60 232.336 60C229.992 60 227.727 60.0391 225.539 60.1172C225.487 59.9609 225.461 59.8307 225.461 59.7266C225.461 59.5052 225.487 59.3294 225.539 59.1992C225.93 59.1602 226.242 59.1276 226.477 59.1016C226.711 59.0755 227.03 59.0299 227.434 58.9648C227.85 58.8997 228.182 58.8281 228.43 58.75C228.69 58.6589 228.957 58.5482 229.23 58.418C229.504 58.2878 229.706 58.1315 229.836 57.9492C229.979 57.7669 230.051 57.5586 230.051 57.3242C230.207 53.2487 230.285 49.1406 230.285 45C230.285 40.7812 230.22 37.1419 230.09 34.082C230.077 33.7435 229.927 33.457 229.641 33.2227C229.354 32.9753 228.938 32.7865 228.391 32.6562C227.857 32.526 227.401 32.4349 227.023 32.3828C226.659 32.3177 226.177 32.2591 225.578 32.207C225.526 31.9727 225.5 31.8099 225.5 31.7188C225.5 31.5885 225.526 31.4453 225.578 31.2891Z" fill="#F5F5F5"/>
<path d="M90 45C90 69.8528 69.8528 90 45 90C20.1472 90 0 69.8528 0 45C0 20.1472 20.1472 0 45 0C69.8528 0 90 20.1472 90 45Z" fill="white"/>
<path d="M42.18 57.9H33.06V56.97L35.88 54.75V38.16L27.87 57.9H26.22L18.27 37.95V55.11L21.42 56.7L20.82 57.9H13.8V56.97L16.62 54.75V37.17L13.5 35.49L14.1 34.29H20.61L28.11 53.13L35.58 34.29H42.48V35.22L39.63 37.44V55.59L42.78 56.7L42.18 57.9Z" fill="black"/>
<path d="M53.58 56.52L57.78 50.31L58.68 50.61V58.41L57.06 57.87H39.57V56.52L54.6 35.64H45.18L41.4 41.25L40.5 40.95V33.75L42.12 34.29H58.98V35.64L43.95 56.52H53.58Z" fill="black"/>
<path d="M75.3 57.87H57.3V56.94L60.12 54.72V36.54L57 35.49L57.6 34.29H75L76.62 33.75V40.65L75.72 40.95L72.15 35.64H63.87V45.15H68.58L70.77 41.31H71.7V50.43L70.5 51.03L68.61 46.5H63.87V56.52H72.03L76.02 50.61L76.92 50.91V58.41L75.3 57.87Z" fill="black"/>
</svg>
