<svg width="139" height="69" viewBox="0 0 139 69" fill="none" xmlns="http://www.w3.org/2000/svg">
<path d="M0.574219 59.3867C1.30859 59.418 2.23242 59.4336 3.3457 59.4336L5.61328 65.5742H5.64258L8.00391 59.4336H8.67773C9.16211 59.4336 9.8457 59.418 10.7285 59.3867C10.7441 59.4492 10.752 59.4922 10.752 59.5156C10.752 59.543 10.7441 59.5918 10.7285 59.6621C10.5879 59.6738 10.4746 59.6855 10.3887 59.6973C10.3027 59.709 10.1875 59.7285 10.043 59.7559C9.90234 59.7832 9.78906 59.8164 9.70312 59.8555C9.61719 59.8906 9.54102 59.9414 9.47461 60.0078C9.4082 60.0703 9.37305 60.1426 9.36914 60.2246C9.33008 61.1426 9.31055 62.2344 9.31055 63.5C9.31055 64.7852 9.33594 66.0176 9.38672 67.1973C9.39062 67.2988 9.43555 67.3867 9.52148 67.4609C9.60742 67.5312 9.73047 67.5859 9.89062 67.625C10.0547 67.6641 10.1914 67.6934 10.3008 67.7129C10.4141 67.7285 10.5605 67.7441 10.7402 67.7598C10.7559 67.8223 10.7637 67.875 10.7637 67.918C10.7637 67.9492 10.7559 67.9883 10.7402 68.0352C10.0801 68.0117 9.40039 68 8.70117 68C7.99805 68 7.31836 68.0117 6.66211 68.0352C6.64648 67.9883 6.63867 67.9492 6.63867 67.918C6.63867 67.8516 6.64648 67.7988 6.66211 67.7598C6.8418 67.7441 6.98633 67.7285 7.0957 67.7129C7.20898 67.6934 7.3457 67.6641 7.50586 67.625C7.66992 67.5859 7.79492 67.5312 7.88086 67.4609C7.9668 67.3867 8.01172 67.2988 8.01562 67.1973C8.05469 65.9785 8.07422 64.8906 8.07422 63.9336C8.07422 63.0156 8.05469 61.9707 8.01562 60.7988H7.96875L5.29102 67.8535H5.23242L2.37891 60.6582H2.31445C2.2832 61.6074 2.26758 62.6992 2.26758 63.9336C2.26758 64.8398 2.28711 65.8984 2.32617 67.1094C2.33398 67.4648 2.76562 67.6816 3.62109 67.7598C3.64062 67.8262 3.65039 67.8789 3.65039 67.918C3.65039 67.957 3.64062 67.9961 3.62109 68.0352C3 68.0117 2.44531 68 1.95703 68C1.64453 68 1.12109 68.0117 0.386719 68.0352C0.367188 67.9961 0.357422 67.957 0.357422 67.918C0.357422 67.8516 0.367188 67.7988 0.386719 67.7598C1.25 67.6777 1.68164 67.4609 1.68164 67.1094C1.72852 65.8906 1.75195 64.6875 1.75195 63.5C1.75195 62.6445 1.74023 61.7363 1.7168 60.7754C1.71289 60.6113 1.70312 60.4746 1.6875 60.3652C1.67188 60.252 1.64258 60.1543 1.59961 60.0723C1.55664 59.9902 1.51172 59.9258 1.46484 59.8789C1.41797 59.832 1.3457 59.791 1.24805 59.7559C1.15039 59.7168 1.05469 59.6895 0.960938 59.6738C0.871094 59.6543 0.742188 59.6328 0.574219 59.6094C0.558594 59.5781 0.550781 59.543 0.550781 59.5039C0.550781 59.457 0.558594 59.418 0.574219 59.3867Z" fill="#F5F5F5"/>
<path d="M11.6484 59.3867C12.5234 59.418 13.207 59.4336 13.6992 59.4336C17.0508 59.4141 18.9062 59.3984 19.2656 59.3867C19.3164 59.7773 19.416 60.1484 19.5645 60.5C19.7129 60.8477 19.9023 61.2188 20.1328 61.6133C20.1016 61.6797 20.0332 61.7324 19.9277 61.7715C19.7871 61.5059 19.6172 61.2695 19.418 61.0625C19.2188 60.8555 18.9668 60.6602 18.6621 60.4766C18.3613 60.293 17.9844 60.1426 17.5312 60.0254C17.082 59.9082 16.5684 59.8301 15.9902 59.791H14.373C14.3223 61.4434 14.2969 62.6875 14.2969 63.5234H15.9668C16.0801 63.5234 16.1855 63.5156 16.2832 63.5C16.3848 63.4805 16.4785 63.4492 16.5645 63.4062C16.6504 63.3594 16.7266 63.3164 16.793 63.2773C16.8633 63.2344 16.9336 63.1719 17.0039 63.0898C17.0742 63.0039 17.1328 62.9336 17.1797 62.8789C17.2266 62.8203 17.2832 62.7324 17.3496 62.6152C17.416 62.498 17.4668 62.4062 17.502 62.3398C17.5371 62.2734 17.5898 62.1699 17.6602 62.0293C17.7344 61.8887 17.791 61.7832 17.8301 61.7129C17.9512 61.7598 18.0254 61.8105 18.0527 61.8652C17.8887 62.1543 17.75 62.4746 17.6367 62.8262C17.5234 63.1777 17.4668 63.4707 17.4668 63.7051C17.4668 64.2598 17.6621 64.8711 18.0527 65.5391C18.0215 65.6016 17.9473 65.6543 17.8301 65.6973C17.7871 65.6191 17.7266 65.5078 17.6484 65.3633C17.5742 65.2148 17.5156 65.1016 17.4727 65.0234C17.4297 64.9453 17.3711 64.8457 17.2969 64.7246C17.2227 64.6035 17.1562 64.5098 17.0977 64.4434C17.043 64.377 16.9707 64.3027 16.8809 64.2207C16.7949 64.1387 16.709 64.0781 16.623 64.0391C16.5371 63.9961 16.4375 63.9609 16.3242 63.9336C16.2148 63.9023 16.0957 63.8867 15.9668 63.8867H14.2969C14.2969 64.5078 14.3184 65.7598 14.3613 67.6426H16.2305C16.8086 67.6035 17.3223 67.5254 17.7715 67.4082C18.2246 67.291 18.6016 67.1406 18.9023 66.957C19.207 66.7734 19.459 66.5781 19.6582 66.3711C19.8574 66.1641 20.0273 65.9277 20.168 65.6621C20.2734 65.7012 20.3418 65.752 20.373 65.8145C20.3535 65.8535 20.3027 65.9473 20.2207 66.0957C20.1387 66.2441 20.084 66.3457 20.0566 66.4004C20.0293 66.4512 19.9824 66.543 19.916 66.6758C19.8535 66.8047 19.8066 66.9102 19.7754 66.9922C19.7441 67.0703 19.707 67.1699 19.6641 67.291C19.625 67.4121 19.5918 67.5312 19.5645 67.6484C19.541 67.7617 19.5215 67.8789 19.5059 68H14.3613C13.3027 68 12.3945 68.0117 11.6367 68.0352C11.6211 67.9883 11.6133 67.9492 11.6133 67.918C11.6133 67.8906 11.6211 67.8379 11.6367 67.7598C11.8164 67.7441 11.9609 67.7285 12.0703 67.7129C12.1836 67.6934 12.3203 67.6641 12.4805 67.625C12.6445 67.5859 12.7695 67.5312 12.8555 67.4609C12.9414 67.3867 12.9863 67.2988 12.9902 67.1973C13.0371 65.9746 13.0605 64.7422 13.0605 63.5C13.0605 62.2344 13.041 61.1426 13.002 60.2246C12.998 60.123 12.9531 60.0371 12.8672 59.9668C12.7812 59.8926 12.6562 59.8359 12.4922 59.7969C12.332 59.7578 12.1953 59.7305 12.082 59.7148C11.9727 59.6953 11.8281 59.6777 11.6484 59.6621C11.6328 59.5918 11.625 59.543 11.625 59.5156C11.625 59.4922 11.6328 59.4492 11.6484 59.3867Z" fill="#F5F5F5"/>
<path d="M22.4355 59.3867C22.6855 59.3906 23.3379 59.4004 24.3926 59.416C25.4473 59.4277 26.2324 59.4336 26.748 59.4336C27.1387 59.4336 27.5293 59.418 27.9199 59.3867C28.0488 59.4297 28.1133 59.5176 28.1133 59.6504C26.1914 62.3652 24.3438 65.0293 22.5703 67.6426H24.5039C25.0391 67.6426 25.5117 67.6035 25.9219 67.5254C26.3359 67.4434 26.6895 67.332 26.9824 67.1914C27.2754 67.0469 27.5332 66.8555 27.7559 66.6172C27.9824 66.375 28.1699 66.1152 28.3184 65.8379C28.4707 65.5605 28.6152 65.2285 28.752 64.8418C28.8652 64.8574 28.9395 64.8984 28.9746 64.9648C28.791 65.4414 28.668 65.9219 28.6055 66.4062C28.543 66.8867 28.5117 67.418 28.5117 68H22.2832C21.873 68 21.457 68.0117 21.0352 68.0352C20.9766 67.9766 20.9473 67.9004 20.9473 67.8066C22.7793 65.2441 24.6367 62.5645 26.5195 59.7676C26.043 59.7715 25.625 59.7871 25.2656 59.8145C24.9062 59.8418 24.5703 59.8965 24.2578 59.9785C23.9492 60.0605 23.6875 60.1445 23.4727 60.2305C23.2578 60.3164 23.0195 60.4512 22.7578 60.6348C22.4961 60.8145 22.2734 60.9824 22.0898 61.1387C21.9102 61.291 21.6582 61.5137 21.334 61.8066C21.2246 61.8066 21.1445 61.7637 21.0938 61.6777C21.707 61.0293 22.1543 60.2656 22.4355 59.3867Z" fill="#F5F5F5"/>
<path d="M31.0371 59.3867C31.2871 59.3906 31.9395 59.4004 32.9941 59.416C34.0488 59.4277 34.834 59.4336 35.3496 59.4336C35.7402 59.4336 36.1309 59.418 36.5215 59.3867C36.6504 59.4297 36.7148 59.5176 36.7148 59.6504C34.793 62.3652 32.9453 65.0293 31.1719 67.6426H33.1055C33.6406 67.6426 34.1133 67.6035 34.5234 67.5254C34.9375 67.4434 35.291 67.332 35.584 67.1914C35.877 67.0469 36.1348 66.8555 36.3574 66.6172C36.584 66.375 36.7715 66.1152 36.9199 65.8379C37.0723 65.5605 37.2168 65.2285 37.3535 64.8418C37.4668 64.8574 37.541 64.8984 37.5762 64.9648C37.3926 65.4414 37.2695 65.9219 37.207 66.4062C37.1445 66.8867 37.1133 67.418 37.1133 68H30.8848C30.4746 68 30.0586 68.0117 29.6367 68.0352C29.5781 67.9766 29.5488 67.9004 29.5488 67.8066C31.3809 65.2441 33.2383 62.5645 35.1211 59.7676C34.6445 59.7715 34.2266 59.7871 33.8672 59.8145C33.5078 59.8418 33.1719 59.8965 32.8594 59.9785C32.5508 60.0605 32.2891 60.1445 32.0742 60.2305C31.8594 60.3164 31.6211 60.4512 31.3594 60.6348C31.0977 60.8145 30.875 60.9824 30.6914 61.1387C30.5117 61.291 30.2598 61.5137 29.9355 61.8066C29.8262 61.8066 29.7461 61.7637 29.6953 61.6777C30.3086 61.0293 30.7559 60.2656 31.0371 59.3867Z" fill="#F5F5F5"/>
<path d="M38.2734 59.3867C39.1484 59.418 39.8281 59.4336 40.3125 59.4336C40.7969 59.4336 41.4766 59.418 42.3516 59.3867C42.3672 59.4492 42.375 59.4922 42.375 59.5156C42.375 59.5586 42.3672 59.6074 42.3516 59.6621C42.1719 59.6777 42.0254 59.6953 41.9121 59.7148C41.8027 59.7305 41.666 59.7578 41.502 59.7969C41.3418 59.8359 41.2188 59.8926 41.1328 59.9668C41.0469 60.0371 41.002 60.123 40.998 60.2246C40.9473 61.5527 40.9219 62.7891 40.9219 63.9336C40.9219 64.7695 40.9434 65.8574 40.9863 67.1973C40.9902 67.2988 41.0352 67.3867 41.1211 67.4609C41.207 67.5312 41.3301 67.5859 41.4902 67.625C41.6543 67.6641 41.791 67.6934 41.9004 67.7129C42.0137 67.7285 42.1602 67.7441 42.3398 67.7598C42.3555 67.8066 42.3633 67.8594 42.3633 67.918C42.3633 67.9492 42.3555 67.9883 42.3398 68.0352C41.6758 68.0117 40.9961 68 40.3008 68C39.5977 68 38.918 68.0117 38.2617 68.0352C38.2461 67.9883 38.2383 67.9492 38.2383 67.918C38.2383 67.8516 38.2461 67.7988 38.2617 67.7598C38.3789 67.748 38.4727 67.7383 38.543 67.7305C38.6133 67.7227 38.709 67.709 38.8301 67.6895C38.9551 67.6699 39.0547 67.6484 39.1289 67.625C39.207 67.5977 39.2871 67.5645 39.3691 67.5254C39.4512 67.4863 39.5117 67.4395 39.5508 67.3848C39.5938 67.3301 39.6152 67.2676 39.6152 67.1973C39.6621 65.9746 39.6855 64.7422 39.6855 63.5C39.6855 62.2344 39.666 61.1426 39.627 60.2246C39.623 60.123 39.5781 60.0371 39.4922 59.9668C39.4062 59.8926 39.2812 59.8359 39.1172 59.7969C38.957 59.7578 38.8203 59.7305 38.707 59.7148C38.5977 59.6953 38.4531 59.6777 38.2734 59.6621C38.2578 59.5918 38.25 59.543 38.25 59.5156C38.25 59.4766 38.2578 59.4336 38.2734 59.3867Z" fill="#F5F5F5"/>
<path d="M50.5488 59.2988C50.6074 59.2559 50.6699 59.2285 50.7363 59.2168L53.9414 67.2207C53.9805 67.3184 54.0449 67.4023 54.1348 67.4727C54.2246 67.5391 54.3359 67.5918 54.4688 67.6309C54.6055 67.666 54.7227 67.6934 54.8203 67.7129C54.9219 67.7285 55.0449 67.7441 55.1895 67.7598C55.2051 67.8223 55.2129 67.875 55.2129 67.918C55.2129 67.9648 55.2051 68.0078 55.1895 68.0469C54.3457 68.0156 53.7148 68 53.2969 68C52.8438 68 52.1875 68.0156 51.3281 68.0469C51.3125 68 51.3047 67.9531 51.3047 67.9062C51.3047 67.8555 51.3125 67.8066 51.3281 67.7598C52.1172 67.6738 52.5117 67.5254 52.5117 67.3145C52.5117 67.248 52.5039 67.1797 52.4883 67.1094L51.6387 64.9297C51.3809 64.9219 51.0332 64.918 50.5957 64.918C50.3887 64.918 49.8516 64.9258 48.9844 64.9414L48.0879 67.2207V67.291C48.0879 67.3301 48.0938 67.3672 48.1055 67.4023C48.1211 67.4375 48.1445 67.4688 48.1758 67.4961C48.2109 67.5234 48.2441 67.5469 48.2754 67.5664C48.3066 67.5859 48.3496 67.6055 48.4043 67.625C48.4629 67.6406 48.5117 67.6543 48.5508 67.666C48.5938 67.6738 48.6504 67.6836 48.7207 67.6953C48.7949 67.707 48.8516 67.7168 48.8906 67.7246C48.9297 67.7285 48.9863 67.7344 49.0605 67.7422C49.1387 67.75 49.1934 67.7559 49.2246 67.7598C49.2402 67.8223 49.248 67.875 49.248 67.918C49.248 67.9414 49.2402 67.9844 49.2246 68.0469C48.3496 68.0156 47.8574 68 47.748 68C47.5371 68 46.9941 68.0156 46.1191 68.0469C46.1035 68 46.0957 67.9531 46.0957 67.9062C46.0957 67.8555 46.1035 67.8066 46.1191 67.7598C46.9316 67.666 47.3945 67.4668 47.5078 67.1621L50.0273 60.8105L49.8984 60.4648C50.1211 60.3164 50.2754 60.1562 50.3613 59.9844C50.4512 59.8125 50.5137 59.584 50.5488 59.2988ZM50.5957 64.4609C50.9551 64.4609 51.2383 64.457 51.4453 64.4492L50.332 61.5664H50.3086L49.1895 64.4375C49.5566 64.4531 50.0254 64.4609 50.5957 64.4609Z" fill="#F5F5F5"/>
<path d="M57.2988 64.0273C57.2988 63.7461 57.2793 62.459 57.2402 60.166C57.2285 60.0762 57.1816 60 57.0996 59.9375C57.0215 59.8711 56.9062 59.8203 56.7539 59.7852C56.6016 59.75 56.4766 59.7246 56.3789 59.709C56.2852 59.6934 56.1523 59.6777 55.9805 59.6621C55.9648 59.5918 55.957 59.543 55.957 59.5156C55.957 59.4922 55.9648 59.4492 55.9805 59.3867C56.082 59.3906 56.3242 59.4004 56.707 59.416C57.0898 59.4277 57.3848 59.4336 57.5918 59.4336C57.7676 59.4336 58.0996 59.4258 58.5879 59.4102C59.0762 59.3945 59.4277 59.3867 59.6426 59.3867C60.6426 59.3867 61.4062 59.6191 61.9336 60.084C62.4609 60.5488 62.7246 61.168 62.7246 61.9414C62.7246 62.6758 62.4883 63.2754 62.0156 63.7402C61.543 64.2051 60.8711 64.4375 60 64.4375C59.4766 64.4375 59.0059 64.3281 58.5879 64.1094C58.5879 65.0625 58.5996 66.0918 58.623 67.1973C58.627 67.2988 58.6719 67.3867 58.7578 67.4609C58.8438 67.5312 58.9668 67.5859 59.127 67.625C59.291 67.6641 59.4277 67.6934 59.5371 67.7129C59.6504 67.7285 59.7969 67.7441 59.9766 67.7598C59.9922 67.8379 60 67.8906 60 67.918C60 67.9492 59.9922 67.9883 59.9766 68.0352C59.3125 68.0117 58.6328 68 57.9375 68C57.2344 68 56.5547 68.0117 55.8984 68.0352C55.8828 67.9883 55.875 67.9492 55.875 67.918C55.875 67.8516 55.8828 67.7988 55.8984 67.7598C56.0781 67.7441 56.2227 67.7285 56.332 67.7129C56.4453 67.6934 56.582 67.6641 56.7422 67.625C56.9062 67.5859 57.0312 67.5312 57.1172 67.4609C57.2031 67.3867 57.248 67.2988 57.252 67.1973C57.2832 66.1934 57.2988 65.1367 57.2988 64.0273ZM58.623 59.791C58.5996 61.1973 58.5879 62.5059 58.5879 63.7168C58.9082 63.8613 59.2266 63.9336 59.543 63.9336C60.0938 63.9336 60.5078 63.7559 60.7852 63.4004C61.0625 63.0449 61.2012 62.5547 61.2012 61.9297C61.2012 60.4883 60.4883 59.7676 59.0625 59.7676C58.9727 59.7676 58.8262 59.7754 58.623 59.791Z" fill="#F5F5F5"/>
<path d="M64.998 64.0273C64.998 63.7461 64.9785 62.459 64.9395 60.166C64.9277 60.0762 64.8809 60 64.7988 59.9375C64.7207 59.8711 64.6055 59.8203 64.4531 59.7852C64.3008 59.75 64.1758 59.7246 64.0781 59.709C63.9844 59.6934 63.8516 59.6777 63.6797 59.6621C63.6641 59.5918 63.6562 59.543 63.6562 59.5156C63.6562 59.4922 63.6641 59.4492 63.6797 59.3867C63.7812 59.3906 64.0234 59.4004 64.4062 59.416C64.7891 59.4277 65.084 59.4336 65.291 59.4336C65.4668 59.4336 65.7988 59.4258 66.2871 59.4102C66.7754 59.3945 67.127 59.3867 67.3418 59.3867C68.3418 59.3867 69.1055 59.6191 69.6328 60.084C70.1602 60.5488 70.4238 61.168 70.4238 61.9414C70.4238 62.6758 70.1875 63.2754 69.7148 63.7402C69.2422 64.2051 68.5703 64.4375 67.6992 64.4375C67.1758 64.4375 66.7051 64.3281 66.2871 64.1094C66.2871 65.0625 66.2988 66.0918 66.3223 67.1973C66.3262 67.2988 66.3711 67.3867 66.457 67.4609C66.543 67.5312 66.666 67.5859 66.8262 67.625C66.9902 67.6641 67.127 67.6934 67.2363 67.7129C67.3496 67.7285 67.4961 67.7441 67.6758 67.7598C67.6914 67.8379 67.6992 67.8906 67.6992 67.918C67.6992 67.9492 67.6914 67.9883 67.6758 68.0352C67.0117 68.0117 66.332 68 65.6367 68C64.9336 68 64.2539 68.0117 63.5977 68.0352C63.582 67.9883 63.5742 67.9492 63.5742 67.918C63.5742 67.8516 63.582 67.7988 63.5977 67.7598C63.7773 67.7441 63.9219 67.7285 64.0312 67.7129C64.1445 67.6934 64.2812 67.6641 64.4414 67.625C64.6055 67.5859 64.7305 67.5312 64.8164 67.4609C64.9023 67.3867 64.9473 67.2988 64.9512 67.1973C64.9824 66.1934 64.998 65.1367 64.998 64.0273ZM66.3223 59.791C66.2988 61.1973 66.2871 62.5059 66.2871 63.7168C66.6074 63.8613 66.9258 63.9336 67.2422 63.9336C67.793 63.9336 68.207 63.7559 68.4844 63.4004C68.7617 63.0449 68.9004 62.5547 68.9004 61.9297C68.9004 60.4883 68.1875 59.7676 66.7617 59.7676C66.6719 59.7676 66.5254 59.7754 66.3223 59.791Z" fill="#F5F5F5"/>
<path d="M71.3086 59.3867C72.1836 59.418 72.8633 59.4336 73.3477 59.4336C73.832 59.4336 74.5117 59.418 75.3867 59.3867C75.4023 59.4492 75.4102 59.4922 75.4102 59.5156C75.4102 59.543 75.4023 59.5918 75.3867 59.6621C75.207 59.6777 75.0605 59.6953 74.9473 59.7148C74.8379 59.7305 74.7012 59.7578 74.5371 59.7969C74.377 59.8359 74.2539 59.8926 74.168 59.9668C74.082 60.0371 74.0371 60.123 74.0332 60.2246C73.9824 61.5527 73.957 62.7891 73.957 63.9336C73.957 64.5234 73.9785 65.7598 74.0215 67.6426H75.832C76.4062 67.6035 76.9199 67.5195 77.373 67.3906C77.8262 67.2617 78.2031 67.0977 78.5039 66.8984C78.8086 66.6953 79.0586 66.4863 79.2539 66.2715C79.4531 66.0527 79.625 65.8086 79.7695 65.5391C79.8711 65.5781 79.9375 65.6309 79.9688 65.6973C79.8086 65.9941 79.6836 66.2344 79.5938 66.418C79.5078 66.6016 79.4121 66.8438 79.3066 67.1445C79.2051 67.4414 79.1387 67.7266 79.1074 68H74.0215C72.9629 68 72.0547 68.0117 71.2969 68.0352C71.2812 67.9883 71.2734 67.9492 71.2734 67.918C71.2734 67.8906 71.2812 67.8379 71.2969 67.7598C71.4766 67.7441 71.6211 67.7285 71.7305 67.7129C71.8438 67.6934 71.9805 67.6641 72.1406 67.625C72.3047 67.5859 72.4297 67.5312 72.5156 67.4609C72.6016 67.3867 72.6465 67.2988 72.6504 67.1973C72.6973 65.9746 72.7207 64.7422 72.7207 63.5C72.7207 62.2344 72.7012 61.1426 72.6621 60.2246C72.6582 60.123 72.6133 60.0371 72.5273 59.9668C72.4414 59.8926 72.3164 59.8359 72.1523 59.7969C71.9922 59.7578 71.8555 59.7305 71.7422 59.7148C71.6328 59.6953 71.4883 59.6777 71.3086 59.6621C71.293 59.5918 71.2852 59.543 71.2852 59.5156C71.2852 59.4766 71.293 59.4336 71.3086 59.3867Z" fill="#F5F5F5"/>
<path d="M80.6719 59.3867C81.5469 59.418 82.2266 59.4336 82.7109 59.4336C83.1953 59.4336 83.875 59.418 84.75 59.3867C84.7656 59.4492 84.7734 59.4922 84.7734 59.5156C84.7734 59.5586 84.7656 59.6074 84.75 59.6621C84.5703 59.6777 84.4238 59.6953 84.3105 59.7148C84.2012 59.7305 84.0645 59.7578 83.9004 59.7969C83.7402 59.8359 83.6172 59.8926 83.5312 59.9668C83.4453 60.0371 83.4004 60.123 83.3965 60.2246C83.3457 61.5527 83.3203 62.7891 83.3203 63.9336C83.3203 64.7695 83.3418 65.8574 83.3848 67.1973C83.3887 67.2988 83.4336 67.3867 83.5195 67.4609C83.6055 67.5312 83.7285 67.5859 83.8887 67.625C84.0527 67.6641 84.1895 67.6934 84.2988 67.7129C84.4121 67.7285 84.5586 67.7441 84.7383 67.7598C84.7539 67.8066 84.7617 67.8594 84.7617 67.918C84.7617 67.9492 84.7539 67.9883 84.7383 68.0352C84.0742 68.0117 83.3945 68 82.6992 68C81.9961 68 81.3164 68.0117 80.6602 68.0352C80.6445 67.9883 80.6367 67.9492 80.6367 67.918C80.6367 67.8516 80.6445 67.7988 80.6602 67.7598C80.7773 67.748 80.8711 67.7383 80.9414 67.7305C81.0117 67.7227 81.1074 67.709 81.2285 67.6895C81.3535 67.6699 81.4531 67.6484 81.5273 67.625C81.6055 67.5977 81.6855 67.5645 81.7676 67.5254C81.8496 67.4863 81.9102 67.4395 81.9492 67.3848C81.9922 67.3301 82.0137 67.2676 82.0137 67.1973C82.0605 65.9746 82.084 64.7422 82.084 63.5C82.084 62.2344 82.0645 61.1426 82.0254 60.2246C82.0215 60.123 81.9766 60.0371 81.8906 59.9668C81.8047 59.8926 81.6797 59.8359 81.5156 59.7969C81.3555 59.7578 81.2188 59.7305 81.1055 59.7148C80.9961 59.6953 80.8516 59.6777 80.6719 59.6621C80.6562 59.5918 80.6484 59.543 80.6484 59.5156C80.6484 59.4766 80.6562 59.4336 80.6719 59.3867Z" fill="#F5F5F5"/>
<path d="M90.416 59.1934C90.7246 59.1934 91.0312 59.2148 91.3359 59.2578C91.6445 59.2969 91.9395 59.3457 92.2207 59.4043C92.5059 59.459 92.7754 59.5137 93.0293 59.5684C93.2832 59.623 93.5117 59.6621 93.7148 59.6855C93.668 59.8262 93.6445 60.0742 93.6445 60.4297C93.6445 61.1211 93.748 61.7207 93.9551 62.2285C93.9316 62.2988 93.8594 62.3418 93.7383 62.3574L93.4863 61.8184C93.3613 61.5488 93.2109 61.2832 93.0352 61.0215C92.8594 60.7559 92.6484 60.5195 92.4023 60.3125C92.1562 60.1016 91.8691 59.9316 91.541 59.8027C91.2168 59.6738 90.8418 59.6094 90.416 59.6094C90.0488 59.6094 89.7227 59.6699 89.4375 59.791C89.1523 59.9121 88.9023 60.0762 88.6875 60.2832C88.4727 60.4863 88.291 60.7246 88.1426 60.998C87.9941 61.2676 87.873 61.5547 87.7793 61.8594C87.6895 62.1641 87.623 62.4766 87.5801 62.7969C87.541 63.1172 87.5215 63.4277 87.5215 63.7285C87.5215 64.2285 87.5859 64.707 87.7148 65.1641C87.8477 65.6211 88.0527 66.0254 88.3301 66.377C88.6074 66.7246 88.959 67.002 89.3848 67.209C89.8145 67.416 90.3262 67.5195 90.9199 67.5195C92.0566 67.5195 92.916 67.1641 93.498 66.4531C93.5605 66.4531 93.6113 66.4707 93.6504 66.5059C93.6934 66.541 93.7148 66.584 93.7148 66.6348C93.5273 66.9121 93.2988 67.1523 93.0293 67.3555C92.7637 67.5586 92.4805 67.7266 92.1797 67.8594C91.8789 67.9883 91.5742 68.084 91.2656 68.1465C90.9609 68.209 90.6777 68.2402 90.416 68.2402C90.1309 68.2402 89.8223 68.209 89.4902 68.1465C89.1621 68.0879 88.832 67.9883 88.5 67.8477C88.1719 67.707 87.8555 67.5234 87.5508 67.2969C87.25 67.0664 86.9824 66.7852 86.748 66.4531C86.5137 66.1172 86.3262 65.7246 86.1855 65.2754C86.0449 64.8262 85.9746 64.3105 85.9746 63.7285C85.9746 63.1426 86.0449 62.625 86.1855 62.1758C86.3262 61.7227 86.5137 61.3281 86.748 60.9922C86.9863 60.6562 87.2578 60.375 87.5625 60.1484C87.8711 59.918 88.1895 59.7324 88.5176 59.5918C88.8457 59.4473 89.1738 59.3457 89.502 59.2871C89.8301 59.2246 90.1348 59.1934 90.416 59.1934Z" fill="#F5F5F5"/>
<path d="M98.9238 59.2988C98.9824 59.2559 99.0449 59.2285 99.1113 59.2168L102.316 67.2207C102.355 67.3184 102.42 67.4023 102.51 67.4727C102.6 67.5391 102.711 67.5918 102.844 67.6309C102.98 67.666 103.098 67.6934 103.195 67.7129C103.297 67.7285 103.42 67.7441 103.564 67.7598C103.58 67.8223 103.588 67.875 103.588 67.918C103.588 67.9648 103.58 68.0078 103.564 68.0469C102.721 68.0156 102.09 68 101.672 68C101.219 68 100.562 68.0156 99.7031 68.0469C99.6875 68 99.6797 67.9531 99.6797 67.9062C99.6797 67.8555 99.6875 67.8066 99.7031 67.7598C100.492 67.6738 100.887 67.5254 100.887 67.3145C100.887 67.248 100.879 67.1797 100.863 67.1094L100.014 64.9297C99.7559 64.9219 99.4082 64.918 98.9707 64.918C98.7637 64.918 98.2266 64.9258 97.3594 64.9414L96.4629 67.2207V67.291C96.4629 67.3301 96.4688 67.3672 96.4805 67.4023C96.4961 67.4375 96.5195 67.4688 96.5508 67.4961C96.5859 67.5234 96.6191 67.5469 96.6504 67.5664C96.6816 67.5859 96.7246 67.6055 96.7793 67.625C96.8379 67.6406 96.8867 67.6543 96.9258 67.666C96.9688 67.6738 97.0254 67.6836 97.0957 67.6953C97.1699 67.707 97.2266 67.7168 97.2656 67.7246C97.3047 67.7285 97.3613 67.7344 97.4355 67.7422C97.5137 67.75 97.5684 67.7559 97.5996 67.7598C97.6152 67.8223 97.623 67.875 97.623 67.918C97.623 67.9414 97.6152 67.9844 97.5996 68.0469C96.7246 68.0156 96.2324 68 96.123 68C95.9121 68 95.3691 68.0156 94.4941 68.0469C94.4785 68 94.4707 67.9531 94.4707 67.9062C94.4707 67.8555 94.4785 67.8066 94.4941 67.7598C95.3066 67.666 95.7695 67.4668 95.8828 67.1621L98.4023 60.8105L98.2734 60.4648C98.4961 60.3164 98.6504 60.1562 98.7363 59.9844C98.8262 59.8125 98.8887 59.584 98.9238 59.2988ZM98.9707 64.4609C99.3301 64.4609 99.6133 64.457 99.8203 64.4492L98.707 61.5664H98.6836L97.5645 64.4375C97.9316 64.4531 98.4004 64.4609 98.9707 64.4609Z" fill="#F5F5F5"/>
<path d="M104.754 59.3867C105.18 59.4023 105.711 59.4141 106.348 59.4219C106.984 59.4297 107.732 59.4336 108.592 59.4336C109.451 59.4336 110.199 59.4297 110.836 59.4219C111.477 59.4141 112.012 59.4023 112.441 59.3867C112.465 59.5547 112.494 59.7168 112.529 59.873C112.564 60.0254 112.623 60.1953 112.705 60.3828L112.881 60.7812L113.309 61.6133C113.281 61.6758 113.213 61.7285 113.104 61.7715C112.971 61.5254 112.809 61.291 112.617 61.0684C112.426 60.8457 112.182 60.6445 111.885 60.4648C111.592 60.2852 111.232 60.1348 110.807 60.0137C110.385 59.8926 109.875 59.8105 109.277 59.7676C109.258 60.2559 109.242 60.8086 109.23 61.4258C109.223 62.0391 109.219 62.7227 109.219 63.4766C109.219 64.2344 109.223 64.9219 109.23 65.5391C109.242 66.1562 109.258 66.709 109.277 67.1973C109.281 67.291 109.318 67.3711 109.389 67.4375C109.459 67.5 109.555 67.5527 109.676 67.5957C109.801 67.6387 109.943 67.6738 110.104 67.7012C110.268 67.7246 110.443 67.7441 110.631 67.7598C110.646 67.8262 110.654 67.8789 110.654 67.918C110.654 67.9531 110.646 67.9922 110.631 68.0352C109.975 68.0117 109.295 68 108.592 68C107.893 68 107.213 68.0117 106.553 68.0352C106.537 67.9922 106.529 67.9531 106.529 67.918C106.529 67.8789 106.537 67.8262 106.553 67.7598L106.834 67.7305C106.936 67.7188 107.049 67.7031 107.174 67.6836C107.299 67.6602 107.414 67.6289 107.52 67.5898C107.629 67.5508 107.721 67.502 107.795 67.4434C107.869 67.3848 107.906 67.3125 107.906 67.2266V67.1973C107.926 66.4824 107.941 65.8164 107.953 65.1992C107.965 64.582 107.971 64.0078 107.971 63.4766C107.971 62.9492 107.965 62.3789 107.953 61.7656C107.941 61.1484 107.926 60.4824 107.906 59.7676C107.344 59.7988 106.854 59.875 106.436 59.9961C106.021 60.1133 105.662 60.2617 105.357 60.4414C105.053 60.6172 104.799 60.8203 104.596 61.0508C104.393 61.2773 104.225 61.5176 104.092 61.7715C103.982 61.7285 103.914 61.6758 103.887 61.6133L104.15 61.1152L104.273 60.8633C104.324 60.7578 104.375 60.6504 104.426 60.541C104.477 60.4316 104.523 60.3184 104.566 60.2012C104.613 60.0801 104.652 59.9531 104.684 59.8203C104.715 59.6836 104.738 59.5391 104.754 59.3867Z" fill="#F5F5F5"/>
<path d="M113.824 59.3867C114.699 59.418 115.379 59.4336 115.863 59.4336C116.348 59.4336 117.027 59.418 117.902 59.3867C117.918 59.4492 117.926 59.4922 117.926 59.5156C117.926 59.5586 117.918 59.6074 117.902 59.6621C117.723 59.6777 117.576 59.6953 117.463 59.7148C117.354 59.7305 117.217 59.7578 117.053 59.7969C116.893 59.8359 116.77 59.8926 116.684 59.9668C116.598 60.0371 116.553 60.123 116.549 60.2246C116.498 61.5527 116.473 62.7891 116.473 63.9336C116.473 64.7695 116.494 65.8574 116.537 67.1973C116.541 67.2988 116.586 67.3867 116.672 67.4609C116.758 67.5312 116.881 67.5859 117.041 67.625C117.205 67.6641 117.342 67.6934 117.451 67.7129C117.564 67.7285 117.711 67.7441 117.891 67.7598C117.906 67.8066 117.914 67.8594 117.914 67.918C117.914 67.9492 117.906 67.9883 117.891 68.0352C117.227 68.0117 116.547 68 115.852 68C115.148 68 114.469 68.0117 113.812 68.0352C113.797 67.9883 113.789 67.9492 113.789 67.918C113.789 67.8516 113.797 67.7988 113.812 67.7598C113.93 67.748 114.023 67.7383 114.094 67.7305C114.164 67.7227 114.26 67.709 114.381 67.6895C114.506 67.6699 114.605 67.6484 114.68 67.625C114.758 67.5977 114.838 67.5645 114.92 67.5254C115.002 67.4863 115.062 67.4395 115.102 67.3848C115.145 67.3301 115.166 67.2676 115.166 67.1973C115.213 65.9746 115.236 64.7422 115.236 63.5C115.236 62.2344 115.217 61.1426 115.178 60.2246C115.174 60.123 115.129 60.0371 115.043 59.9668C114.957 59.8926 114.832 59.8359 114.668 59.7969C114.508 59.7578 114.371 59.7305 114.258 59.7148C114.148 59.6953 114.004 59.6777 113.824 59.6621C113.809 59.5918 113.801 59.543 113.801 59.5156C113.801 59.4766 113.809 59.4336 113.824 59.3867Z" fill="#F5F5F5"/>
<path d="M123.598 59.1875C123.898 59.1875 124.215 59.2188 124.547 59.2812C124.883 59.3438 125.213 59.4473 125.537 59.5918C125.865 59.7324 126.178 59.9199 126.475 60.1543C126.775 60.3848 127.039 60.668 127.266 61.0039C127.492 61.3398 127.672 61.7324 127.805 62.1816C127.941 62.6309 128.01 63.1465 128.01 63.7285C128.01 64.3145 127.943 64.834 127.811 65.2871C127.678 65.7363 127.498 66.1289 127.271 66.4648C127.045 66.7969 126.781 67.0781 126.48 67.3086C126.184 67.5352 125.869 67.7188 125.537 67.8594C125.209 67.9961 124.873 68.0938 124.529 68.1523C124.186 68.2148 123.857 68.2461 123.545 68.2461C123.248 68.2461 122.932 68.2148 122.596 68.1523C122.264 68.0938 121.934 67.9961 121.605 67.8594C121.277 67.7188 120.963 67.5352 120.662 67.3086C120.365 67.0781 120.102 66.7969 119.871 66.4648C119.645 66.1289 119.463 65.7363 119.326 65.2871C119.193 64.834 119.127 64.3145 119.127 63.7285C119.127 63.127 119.197 62.5977 119.338 62.1406C119.479 61.6797 119.664 61.2812 119.895 60.9453C120.129 60.6094 120.398 60.3301 120.703 60.1074C121.012 59.8809 121.33 59.6992 121.658 59.5625C121.99 59.4258 122.322 59.3301 122.654 59.2754C122.99 59.2168 123.305 59.1875 123.598 59.1875ZM123.568 59.6094C123.201 59.6094 122.875 59.6699 122.59 59.791C122.305 59.9121 122.055 60.0762 121.84 60.2832C121.625 60.4863 121.443 60.7246 121.295 60.998C121.146 61.2676 121.025 61.5547 120.932 61.8594C120.842 62.1641 120.775 62.4766 120.732 62.7969C120.693 63.1172 120.674 63.4277 120.674 63.7285C120.674 64.0176 120.693 64.3184 120.732 64.6309C120.771 64.9434 120.836 65.252 120.926 65.5566C121.016 65.8574 121.133 66.1445 121.277 66.418C121.426 66.6914 121.607 66.9316 121.822 67.1387C122.037 67.3457 122.287 67.5117 122.572 67.6367C122.861 67.7578 123.193 67.8184 123.568 67.8184C123.936 67.8184 124.262 67.7598 124.547 67.6426C124.832 67.5215 125.082 67.3594 125.297 67.1562C125.512 66.9492 125.691 66.7109 125.836 66.4414C125.984 66.168 126.104 65.8809 126.193 65.5801C126.287 65.2754 126.354 64.9648 126.393 64.6484C126.436 64.332 126.457 64.0254 126.457 63.7285C126.457 63.4277 126.436 63.1172 126.393 62.7969C126.354 62.4766 126.287 62.1641 126.193 61.8594C126.104 61.5547 125.984 61.2676 125.836 60.998C125.688 60.7246 125.506 60.4863 125.291 60.2832C125.076 60.0762 124.826 59.9121 124.541 59.791C124.256 59.6699 123.932 59.6094 123.568 59.6094Z" fill="#F5F5F5"/>
<path d="M129.246 59.3867C129.887 59.418 130.695 59.4336 131.672 59.4336C134.434 62.8945 135.918 64.7383 136.125 64.9648C136.332 65.1875 136.436 65.2988 136.436 65.2988H136.482C136.498 64.5488 136.506 63.9453 136.506 63.4883C136.506 62.5859 136.486 61.5254 136.447 60.3066C136.439 59.9551 136.006 59.7402 135.146 59.6621C135.131 59.5762 135.123 59.5234 135.123 59.5039C135.123 59.4727 135.131 59.4336 135.146 59.3867C135.775 59.4102 136.332 59.4219 136.816 59.4219C137.129 59.4219 137.652 59.4102 138.387 59.3867C138.402 59.4336 138.41 59.4727 138.41 59.5039C138.41 59.5664 138.402 59.6191 138.387 59.6621C137.531 59.7402 137.1 59.9551 137.092 60.3066C137.045 61.5293 137.021 62.7344 137.021 63.9219C137.021 65.7383 137.041 67.1055 137.08 68.0234L136.975 68.0352L131.15 60.8691H131.092C131.068 61.8809 131.057 62.9023 131.057 63.9336C131.057 64.8398 131.076 65.8984 131.115 67.1094C131.123 67.4648 131.555 67.6816 132.41 67.7598C132.43 67.8262 132.439 67.8789 132.439 67.918C132.439 67.957 132.43 67.9961 132.41 68.0352C131.789 68.0117 131.234 68 130.746 68C130.434 68 129.91 68.0117 129.176 68.0352C129.156 67.9961 129.146 67.957 129.146 67.918C129.146 67.8516 129.156 67.7988 129.176 67.7598C130.039 67.6777 130.471 67.4609 130.471 67.1094C130.518 65.8906 130.541 64.6875 130.541 63.5C130.541 62.2109 130.525 61.0918 130.494 60.1426C130.166 59.8574 129.75 59.6973 129.246 59.6621C129.223 59.6113 129.211 59.5664 129.211 59.5273C129.211 59.4688 129.223 59.4219 129.246 59.3867Z" fill="#F5F5F5"/>
<path d="M56.2223 48.9659H41.842V47.0803L46.2886 42.5791V8.94161L33.6585 48.9659H31.0568L18.5213 8.51581V43.309L23.4882 46.5328L22.5421 48.9659H11.473V47.0803L15.9196 42.5791V6.9343L11 3.52798L11.9461 1.09489H22.211L34.0369 39.2944L45.8155 1.09489H56.6954V2.98053L52.2015 7.48175V44.2822L57.1684 46.5328L56.2223 48.9659Z" fill="white"/>
<path d="M74.1977 46.1679L80.8202 33.5766L82.2394 34.1849V50L79.685 48.9051H52.1069V46.1679L75.8061 3.83211H60.9527L54.9924 15.2068L53.5733 14.5985V0L56.1277 1.09489H82.7124V3.83211L59.0132 46.1679H74.1977Z" fill="white"/>
<path d="M108.446 48.9051H80.0634V47.0195L84.5099 42.5182V5.65693L79.5903 3.52798L80.5364 1.09489H107.973L110.527 0V13.9903L109.108 14.5985L103.479 3.83211H90.4229V23.1144H97.8496L101.303 15.3285H102.769V33.82L100.877 35.0365L97.8969 25.8516H90.4229V46.1679H103.289L109.581 34.1849L111 34.7932V50L108.446 48.9051Z" fill="white"/>
</svg>
